G04 #@! TF.GenerationSoftware,KiCad,Pcbnew,(6.0.11)*
G04 #@! TF.CreationDate,2024-04-06T01:18:53+03:00*
G04 #@! TF.ProjectId,communication_module_PCB,636f6d6d-756e-4696-9361-74696f6e5f6d,rev?*
G04 #@! TF.SameCoordinates,Original*
G04 #@! TF.FileFunction,Soldermask,Top*
G04 #@! TF.FilePolarity,Negative*
%FSLAX46Y46*%
G04 Gerber Fmt 4.6, Leading zero omitted, Abs format (unit mm)*
G04 Created by KiCad (PCBNEW (6.0.11)) date 2024-04-06 01:18:53*
%MOMM*%
%LPD*%
G01*
G04 APERTURE LIST*
G04 Aperture macros list*
%AMRoundRect*
0 Rectangle with rounded corners*
0 $1 Rounding radius*
0 $2 $3 $4 $5 $6 $7 $8 $9 X,Y pos of 4 corners*
0 Add a 4 corners polygon primitive as box body*
4,1,4,$2,$3,$4,$5,$6,$7,$8,$9,$2,$3,0*
0 Add four circle primitives for the rounded corners*
1,1,$1+$1,$2,$3*
1,1,$1+$1,$4,$5*
1,1,$1+$1,$6,$7*
1,1,$1+$1,$8,$9*
0 Add four rect primitives between the rounded corners*
20,1,$1+$1,$2,$3,$4,$5,0*
20,1,$1+$1,$4,$5,$6,$7,0*
20,1,$1+$1,$6,$7,$8,$9,0*
20,1,$1+$1,$8,$9,$2,$3,0*%
%AMHorizOval*
0 Thick line with rounded ends*
0 $1 width*
0 $2 $3 position (X,Y) of the first rounded end (center of the circle)*
0 $4 $5 position (X,Y) of the second rounded end (center of the circle)*
0 Add line between two ends*
20,1,$1,$2,$3,$4,$5,0*
0 Add two circle primitives to create the rounded ends*
1,1,$1,$2,$3*
1,1,$1,$4,$5*%
%AMRotRect*
0 Rectangle, with rotation*
0 The origin of the aperture is its center*
0 $1 length*
0 $2 width*
0 $3 Rotation angle, in degrees counterclockwise*
0 Add horizontal line*
21,1,$1,$2,0,0,$3*%
G04 Aperture macros list end*
%ADD10RoundRect,0.150000X-0.587500X-0.150000X0.587500X-0.150000X0.587500X0.150000X-0.587500X0.150000X0*%
%ADD11RoundRect,0.250000X-0.625000X0.400000X-0.625000X-0.400000X0.625000X-0.400000X0.625000X0.400000X0*%
%ADD12RoundRect,0.250000X0.325000X0.650000X-0.325000X0.650000X-0.325000X-0.650000X0.325000X-0.650000X0*%
%ADD13RoundRect,0.150000X-0.150000X0.587500X-0.150000X-0.587500X0.150000X-0.587500X0.150000X0.587500X0*%
%ADD14RoundRect,0.250000X0.625000X-0.400000X0.625000X0.400000X-0.625000X0.400000X-0.625000X-0.400000X0*%
%ADD15R,1.800000X1.800000*%
%ADD16C,1.800000*%
%ADD17RoundRect,0.150000X0.587500X0.150000X-0.587500X0.150000X-0.587500X-0.150000X0.587500X-0.150000X0*%
%ADD18C,1.524000*%
%ADD19RoundRect,0.150000X0.150000X-0.587500X0.150000X0.587500X-0.150000X0.587500X-0.150000X-0.587500X0*%
%ADD20RoundRect,0.381000X0.381000X0.381000X-0.381000X0.381000X-0.381000X-0.381000X0.381000X-0.381000X0*%
%ADD21RoundRect,0.250000X-0.724784X-0.159099X-0.159099X-0.724784X0.724784X0.159099X0.159099X0.724784X0*%
%ADD22RoundRect,0.150000X0.309359X0.521491X-0.521491X-0.309359X-0.309359X-0.521491X0.521491X0.309359X0*%
%ADD23RotRect,1.800000X1.800000X45.000000*%
%ADD24RoundRect,0.250000X0.400000X0.625000X-0.400000X0.625000X-0.400000X-0.625000X0.400000X-0.625000X0*%
%ADD25RoundRect,0.150000X-0.521491X0.309359X0.309359X-0.521491X0.521491X-0.309359X-0.309359X0.521491X0*%
%ADD26RoundRect,0.250000X-0.400000X-0.625000X0.400000X-0.625000X0.400000X0.625000X-0.400000X0.625000X0*%
%ADD27RotRect,1.800000X1.800000X135.000000*%
%ADD28RoundRect,0.150000X0.521491X-0.309359X-0.309359X0.521491X-0.521491X0.309359X0.309359X-0.521491X0*%
%ADD29RotRect,1.800000X1.800000X315.000000*%
%ADD30RotRect,1.600000X1.600000X135.000000*%
%ADD31HorizOval,1.600000X0.000000X0.000000X0.000000X0.000000X0*%
%ADD32O,1.600000X1.600000*%
%ADD33R,1.600000X1.600000*%
%ADD34RoundRect,0.250000X0.724784X0.159099X0.159099X0.724784X-0.724784X-0.159099X-0.159099X-0.724784X0*%
%ADD35RoundRect,0.150000X-0.309359X-0.521491X0.521491X0.309359X0.309359X0.521491X-0.521491X-0.309359X0*%
%ADD36RotRect,1.600000X1.600000X315.000000*%
%ADD37HorizOval,1.600000X0.000000X0.000000X0.000000X0.000000X0*%
%ADD38RotRect,1.800000X1.800000X225.000000*%
%ADD39RoundRect,0.250000X1.412500X0.550000X-1.412500X0.550000X-1.412500X-0.550000X1.412500X-0.550000X0*%
%ADD40RoundRect,0.250000X0.159099X-0.724784X0.724784X-0.159099X-0.159099X0.724784X-0.724784X0.159099X0*%
%ADD41RoundRect,0.250000X-0.159099X0.724784X-0.724784X0.159099X0.159099X-0.724784X0.724784X-0.159099X0*%
G04 APERTURE END LIST*
D10*
X42194000Y-70467971D03*
X42194000Y-72367971D03*
X44069000Y-71417971D03*
D11*
X42197000Y-79646200D03*
X42197000Y-82746200D03*
X48369200Y-79697000D03*
X48369200Y-82797000D03*
D12*
X81307200Y-20243800D03*
X78357200Y-20243800D03*
D13*
X26122059Y-44064471D03*
X24222059Y-44064471D03*
X25172059Y-45939471D03*
D14*
X41033700Y-19621500D03*
X41033700Y-16521500D03*
D13*
X44218900Y-21598100D03*
X43268900Y-19723100D03*
X45168900Y-19723100D03*
X58046700Y-19672300D03*
X56146700Y-19672300D03*
X57096700Y-21547300D03*
D15*
X48418059Y-27729971D03*
D16*
X45878059Y-27729971D03*
D17*
X68087000Y-24726900D03*
X69962000Y-23776900D03*
X69962000Y-25676900D03*
D18*
X29616000Y-52367971D03*
X29616000Y-49802571D03*
X29616000Y-47237171D03*
D19*
X56664800Y-79644500D03*
X58564800Y-79644500D03*
X57614800Y-77769500D03*
X38138000Y-79672200D03*
X40038000Y-79672200D03*
X39088000Y-77797200D03*
X44320400Y-79695300D03*
X46220400Y-79695300D03*
X45270400Y-77820300D03*
D20*
X81470500Y-15049500D03*
X78905100Y-15049500D03*
X76339700Y-15049500D03*
X73774300Y-15049500D03*
X71208900Y-15049500D03*
X68643500Y-15049500D03*
D21*
X38257468Y-33075868D03*
X40449500Y-35267900D03*
D22*
X36666723Y-30024810D03*
X35323220Y-28681307D03*
X34669146Y-30678884D03*
D11*
X35770800Y-79671600D03*
X35770800Y-82771600D03*
D23*
X62146869Y-66028861D03*
D16*
X63942920Y-64232810D03*
D24*
X66346059Y-54653971D03*
X63246059Y-54653971D03*
D11*
X54541400Y-79671600D03*
X54541400Y-82771600D03*
D25*
X28228898Y-60431307D03*
X26885395Y-61774810D03*
X28882972Y-62428884D03*
D14*
X42926000Y-66701000D03*
X42926000Y-63601000D03*
D15*
X25198059Y-48730771D03*
D16*
X25198059Y-51270771D03*
D18*
X50114200Y-66956059D03*
X47548800Y-66956059D03*
X44983400Y-66956059D03*
X33411167Y-60389048D03*
X35225179Y-62203060D03*
X37039190Y-64017071D03*
D13*
X38834100Y-19676899D03*
X36934100Y-19676899D03*
X37884100Y-21551899D03*
D26*
X29044300Y-44716700D03*
X32144300Y-44716700D03*
D18*
X64821459Y-46830771D03*
X64821459Y-49396171D03*
X64821459Y-51961571D03*
D27*
X64173620Y-35235532D03*
D16*
X62377569Y-33439481D03*
D14*
X60388500Y-19647500D03*
X60388500Y-16547500D03*
D11*
X72237600Y-22936200D03*
X72237600Y-26036200D03*
D28*
X66565220Y-38970635D03*
X67908723Y-37627132D03*
X65911146Y-36973058D03*
D29*
X31096949Y-64497949D03*
D16*
X32893000Y-66294000D03*
D14*
X47383700Y-19545300D03*
X47383700Y-16445300D03*
D18*
X49911659Y-32147912D03*
X47346259Y-32147912D03*
X44780859Y-32147912D03*
D15*
X46208000Y-71518971D03*
D16*
X48748000Y-71518971D03*
D18*
X61594801Y-60333017D03*
X59780790Y-62147028D03*
X57966778Y-63961040D03*
D15*
X69049900Y-50411300D03*
D16*
X69049900Y-47871300D03*
D18*
X62036319Y-39384410D03*
X60222307Y-37570398D03*
X58408296Y-35756387D03*
D30*
X20989746Y-33798054D03*
D31*
X22785797Y-32002003D03*
X24581848Y-30205952D03*
X26377900Y-28409900D03*
X28173951Y-26613849D03*
X29970002Y-24817798D03*
X31766053Y-23021747D03*
X26377900Y-17633593D03*
X24581848Y-19429644D03*
X22785797Y-21225695D03*
X20989746Y-23021747D03*
X19193695Y-24817798D03*
X17397644Y-26613849D03*
X15601592Y-28409900D03*
D32*
X40026059Y-45755971D03*
X42566059Y-45755971D03*
X45106059Y-45755971D03*
X47646059Y-45755971D03*
X50186059Y-45755971D03*
X52726059Y-45755971D03*
X55266059Y-45755971D03*
X55266059Y-53375971D03*
X52726059Y-53375971D03*
X50186059Y-53375971D03*
X47646059Y-53375971D03*
X45106059Y-53375971D03*
X42566059Y-53375971D03*
D33*
X40026059Y-53375971D03*
D34*
X57002075Y-66671987D03*
X54810043Y-64479955D03*
D35*
X57873395Y-68615132D03*
X59216898Y-69958635D03*
X59870972Y-67961058D03*
D18*
X33036988Y-38607161D03*
X34850999Y-36793150D03*
X36665011Y-34979138D03*
D36*
X74599383Y-65594005D03*
D37*
X72803332Y-67390056D03*
X71007281Y-69186107D03*
X69211229Y-70982159D03*
X67415178Y-72778210D03*
X65619127Y-74574261D03*
X63823076Y-76370312D03*
X69211229Y-81758466D03*
X71007281Y-79962415D03*
X72803332Y-78166364D03*
X74599383Y-76370312D03*
X76395434Y-74574261D03*
X78191485Y-72778210D03*
X79987537Y-70982159D03*
D38*
X32484920Y-32911316D03*
D16*
X30688869Y-34707367D03*
D11*
X52616100Y-31939900D03*
X52616100Y-35039900D03*
D39*
X81226700Y-25171400D03*
X76151700Y-25171400D03*
D24*
X65596100Y-25336500D03*
X62496100Y-25336500D03*
D40*
X30920684Y-58563516D03*
X33112716Y-56371484D03*
D19*
X50518000Y-79695300D03*
X52418000Y-79695300D03*
X51468000Y-77820300D03*
D17*
X53541559Y-28679971D03*
X53541559Y-26779971D03*
X51666559Y-27729971D03*
D13*
X51635700Y-19725401D03*
X49735700Y-19725401D03*
X50685700Y-21600401D03*
D14*
X53886100Y-16572900D03*
X53886100Y-19672900D03*
D41*
X64906891Y-39883344D03*
X62714859Y-42075376D03*
D19*
X68418059Y-55337471D03*
X70318059Y-55337471D03*
X69368059Y-53462471D03*
M02*
