G04 #@! TF.GenerationSoftware,KiCad,Pcbnew,(6.0.11)*
G04 #@! TF.CreationDate,2024-04-06T01:18:53+03:00*
G04 #@! TF.ProjectId,communication_module_PCB,636f6d6d-756e-4696-9361-74696f6e5f6d,rev?*
G04 #@! TF.SameCoordinates,Original*
G04 #@! TF.FileFunction,Soldermask,Bot*
G04 #@! TF.FilePolarity,Negative*
%FSLAX46Y46*%
G04 Gerber Fmt 4.6, Leading zero omitted, Abs format (unit mm)*
G04 Created by KiCad (PCBNEW (6.0.11)) date 2024-04-06 01:18:53*
%MOMM*%
%LPD*%
G01*
G04 APERTURE LIST*
G04 Aperture macros list*
%AMRoundRect*
0 Rectangle with rounded corners*
0 $1 Rounding radius*
0 $2 $3 $4 $5 $6 $7 $8 $9 X,Y pos of 4 corners*
0 Add a 4 corners polygon primitive as box body*
4,1,4,$2,$3,$4,$5,$6,$7,$8,$9,$2,$3,0*
0 Add four circle primitives for the rounded corners*
1,1,$1+$1,$2,$3*
1,1,$1+$1,$4,$5*
1,1,$1+$1,$6,$7*
1,1,$1+$1,$8,$9*
0 Add four rect primitives between the rounded corners*
20,1,$1+$1,$2,$3,$4,$5,0*
20,1,$1+$1,$4,$5,$6,$7,0*
20,1,$1+$1,$6,$7,$8,$9,0*
20,1,$1+$1,$8,$9,$2,$3,0*%
%AMHorizOval*
0 Thick line with rounded ends*
0 $1 width*
0 $2 $3 position (X,Y) of the first rounded end (center of the circle)*
0 $4 $5 position (X,Y) of the second rounded end (center of the circle)*
0 Add line between two ends*
20,1,$1,$2,$3,$4,$5,0*
0 Add two circle primitives to create the rounded ends*
1,1,$1,$2,$3*
1,1,$1,$4,$5*%
%AMRotRect*
0 Rectangle, with rotation*
0 The origin of the aperture is its center*
0 $1 length*
0 $2 width*
0 $3 Rotation angle, in degrees counterclockwise*
0 Add horizontal line*
21,1,$1,$2,0,0,$3*%
G04 Aperture macros list end*
%ADD10R,1.800000X1.800000*%
%ADD11C,1.800000*%
%ADD12C,1.524000*%
%ADD13RoundRect,0.381000X0.381000X0.381000X-0.381000X0.381000X-0.381000X-0.381000X0.381000X-0.381000X0*%
%ADD14RotRect,1.800000X1.800000X45.000000*%
%ADD15RotRect,1.800000X1.800000X135.000000*%
%ADD16RotRect,1.800000X1.800000X315.000000*%
%ADD17RotRect,1.600000X1.600000X135.000000*%
%ADD18HorizOval,1.600000X0.000000X0.000000X0.000000X0.000000X0*%
%ADD19O,1.600000X1.600000*%
%ADD20R,1.600000X1.600000*%
%ADD21RotRect,1.600000X1.600000X315.000000*%
%ADD22HorizOval,1.600000X0.000000X0.000000X0.000000X0.000000X0*%
%ADD23RotRect,1.800000X1.800000X225.000000*%
%ADD24RoundRect,0.250000X0.400000X0.625000X-0.400000X0.625000X-0.400000X-0.625000X0.400000X-0.625000X0*%
G04 APERTURE END LIST*
D10*
X48418059Y-27729971D03*
D11*
X45878059Y-27729971D03*
D12*
X29616000Y-52367971D03*
X29616000Y-49802571D03*
X29616000Y-47237171D03*
D13*
X81470500Y-15049500D03*
X78905100Y-15049500D03*
X76339700Y-15049500D03*
X73774300Y-15049500D03*
X71208900Y-15049500D03*
X68643500Y-15049500D03*
D14*
X62146869Y-66028861D03*
D11*
X63942920Y-64232810D03*
D10*
X25198059Y-48730771D03*
D11*
X25198059Y-51270771D03*
D12*
X50114200Y-66956059D03*
X47548800Y-66956059D03*
X44983400Y-66956059D03*
X33411167Y-60389048D03*
X35225179Y-62203060D03*
X37039190Y-64017071D03*
X64821459Y-46830771D03*
X64821459Y-49396171D03*
X64821459Y-51961571D03*
D15*
X64173620Y-35235532D03*
D11*
X62377569Y-33439481D03*
D16*
X31096949Y-64497949D03*
D11*
X32893000Y-66294000D03*
D12*
X49911659Y-32147912D03*
X47346259Y-32147912D03*
X44780859Y-32147912D03*
D10*
X46208000Y-71518971D03*
D11*
X48748000Y-71518971D03*
D12*
X61594801Y-60333017D03*
X59780790Y-62147028D03*
X57966778Y-63961040D03*
D10*
X69049900Y-50411300D03*
D11*
X69049900Y-47871300D03*
D12*
X62036319Y-39384410D03*
X60222307Y-37570398D03*
X58408296Y-35756387D03*
D17*
X20989746Y-33798054D03*
D18*
X22785797Y-32002003D03*
X24581848Y-30205952D03*
X26377900Y-28409900D03*
X28173951Y-26613849D03*
X29970002Y-24817798D03*
X31766053Y-23021747D03*
X26377900Y-17633593D03*
X24581848Y-19429644D03*
X22785797Y-21225695D03*
X20989746Y-23021747D03*
X19193695Y-24817798D03*
X17397644Y-26613849D03*
X15601592Y-28409900D03*
D19*
X40026059Y-45755971D03*
X42566059Y-45755971D03*
X45106059Y-45755971D03*
X47646059Y-45755971D03*
X50186059Y-45755971D03*
X52726059Y-45755971D03*
X55266059Y-45755971D03*
X55266059Y-53375971D03*
X52726059Y-53375971D03*
X50186059Y-53375971D03*
X47646059Y-53375971D03*
X45106059Y-53375971D03*
X42566059Y-53375971D03*
D20*
X40026059Y-53375971D03*
D12*
X33036988Y-38607161D03*
X34850999Y-36793150D03*
X36665011Y-34979138D03*
D21*
X74599383Y-65594005D03*
D22*
X72803332Y-67390056D03*
X71007281Y-69186107D03*
X69211229Y-70982159D03*
X67415178Y-72778210D03*
X65619127Y-74574261D03*
X63823076Y-76370312D03*
X69211229Y-81758466D03*
X71007281Y-79962415D03*
X72803332Y-78166364D03*
X74599383Y-76370312D03*
X76395434Y-74574261D03*
X78191485Y-72778210D03*
X79987537Y-70982159D03*
D23*
X32484920Y-32911316D03*
D11*
X30688869Y-34707367D03*
D24*
X70473500Y-43903900D03*
X67373500Y-43903900D03*
M02*
