M48
INCH,TZ
T1C0.0157
T2C0.0300
T3C0.0315
T4C0.0354
%
G90
G05
T1
X8625Y-20165
X9255Y-13335
X11175Y-12755
X11645Y-27265
X12375Y-21675
X12565Y-16935
X12830Y-6200
X12875Y-33635
X13250Y-6590
X14765Y-32545
X15225Y-6495
X15585Y-12235
X16295Y-25035
X16405Y-13295
X17415Y-32615
X18045Y-9505
X19725Y-29605
X20625Y-14575
X21300Y-26280
X21835Y-16465
X22945Y-6495
X23025Y-18715
X23025Y-20155
X24295Y-21005
X24315Y-32253
X24785Y-32253
X25145Y-17125
X25325Y-7025
X25585Y-12105
X25669Y-27781
X26235Y-22675
X26345Y-26505
X26640Y-8640
X28825Y-18845
X32040Y-11570
T2
X11660Y-18597
X11660Y-19607
X11660Y-20617
X13007Y-15200
X13154Y-23775
X13721Y-14485
X13868Y-24489
X14435Y-13771
X14582Y-25204
X17630Y-12657
X17710Y-26361
X18640Y-12657
X18720Y-26361
X19650Y-12657
X19730Y-26361
X22822Y-25182
X22995Y-14077
X23536Y-24467
X23710Y-14791
X24250Y-23753
X24424Y-15506
X25520Y-18437
X25520Y-19447
X25520Y-20457
X27025Y-5925
X28035Y-5925
X29045Y-5925
X30055Y-5925
X31065Y-5925
X32075Y-5925
T3
X6142Y-11185
X6849Y-10478
X7557Y-9771
X8264Y-9064
X8264Y-13306
X8971Y-8357
X8971Y-12599
X9678Y-7649
X9678Y-11892
X10385Y-6942
X10385Y-11185
X11092Y-10478
X11799Y-9771
X12506Y-9064
X15758Y-18014
X15758Y-21014
X16758Y-18014
X16758Y-21014
X17758Y-18014
X17758Y-21014
X18758Y-18014
X18758Y-21014
X19758Y-18014
X19758Y-21014
X20758Y-18014
X20758Y-21014
X21758Y-18014
X21758Y-21014
X25127Y-30067
X25834Y-29360
X26541Y-28653
X27249Y-27946
X27249Y-32188
X27956Y-27239
X27956Y-31481
X28663Y-26532
X28663Y-30774
X29370Y-25824
X29370Y-30067
X30077Y-29360
X30784Y-28653
X31491Y-27946
T4
X9920Y-19185
X9920Y-20185
X12082Y-13664
X12243Y-25393
X12789Y-12957
X12950Y-26100
X18062Y-10917
X18192Y-28157
X19062Y-10917
X19192Y-28157
X24467Y-25996
X24558Y-13165
X25174Y-25289
X25265Y-13872
X27185Y-18847
X27185Y-19847
T0
M30
